<svg xmlns="http://www.w3.org/2000/svg" width="29.35" height="33.394" viewBox="0 0 29.35 33.394"><defs><style>.a{fill:#4973bb;}</style></defs><g transform="translate(-30.999)"><path class="a" d="M191.763,469.935A4.9,4.9,0,0,0,196.245,467h-8.964A4.9,4.9,0,0,0,191.763,469.935Z" transform="translate(-146.089 -436.541)"/><path class="a" d="M55.783,16.166V14.023a10.127,10.127,0,0,0-7.174-9.674V2.935a2.935,2.935,0,0,0-5.87,0V4.348a10.127,10.127,0,0,0-7.174,9.674v2.143a15.362,15.362,0,0,1-4.293,10.68.978.978,0,0,0,.706,1.655H59.37a.978.978,0,0,0,.706-1.655,15.362,15.362,0,0,1-4.293-10.68ZM46.652,3.961c-.322-.031-.648-.047-.978-.047s-.656.016-.978.047V2.935a.978.978,0,0,1,1.957,0Z" transform="translate(0)"/><path class="a" d="M393.5,62.17a.978.978,0,1,0,1.957,0,14.579,14.579,0,0,0-4.3-10.377.978.978,0,1,0-1.384,1.384A12.635,12.635,0,0,1,393.5,62.17Z" transform="translate(-335.112 -48.147)"/><path class="a" d="M31.978,63.149a.978.978,0,0,0,.978-.978,12.635,12.635,0,0,1,3.725-8.993A.978.978,0,0,0,35.3,51.794,14.579,14.579,0,0,0,31,62.171.978.978,0,0,0,31.978,63.149Z" transform="translate(-0.001 -48.148)"/></g></svg>