<svg xmlns="http://www.w3.org/2000/svg" xmlns:xlink="http://www.w3.org/1999/xlink" width="30" height="30" viewBox="0 0 30 30">
  <defs>
    <clipPath id="clip-icon-home">
      <rect width="30" height="30"/>
    </clipPath>
  </defs>
  <g id="icon-home" clip-path="url(#clip-icon-home)">
    <g id="首頁icon" transform="translate(0 3)">
      <g id="Group_9" data-name="Group 9">
        <path id="Path_97" data-name="Path 97" d="M76.416,120.939l-10.7,8.867a.255.255,0,0,1-.009.056.257.257,0,0,0-.009.056V138.9a1.212,1.212,0,0,0,1.191,1.2h7.145v-7.183H78.8v7.183h7.145a1.14,1.14,0,0,0,.837-.356,1.153,1.153,0,0,0,.354-.842v-8.979a.265.265,0,0,0-.019-.112Z" transform="translate(-61.416 -116.094)" fill="#fff"/>
        <path id="Path_98" data-name="Path 98" d="M29.793,58.685l-4.075-3.4V47.649a.584.584,0,0,0-.168-.43.576.576,0,0,0-.428-.168H21.549a.579.579,0,0,0-.428.168.585.585,0,0,0-.167.43V51.3l-4.54-3.816a2.3,2.3,0,0,0-2.828,0L.206,58.685a.544.544,0,0,0-.2.4.608.608,0,0,0,.13.44l1.154,1.384a.634.634,0,0,0,.391.206.689.689,0,0,0,.447-.131L15,50.193,27.876,60.986a.572.572,0,0,0,.391.13h.056a.634.634,0,0,0,.391-.206l1.154-1.384a.608.608,0,0,0,.13-.44A.546.546,0,0,0,29.793,58.685Z" transform="translate(0.001 -46.994)" fill="#fff"/>
      </g>
    </g>
  </g>
</svg>
