<svg xmlns="http://www.w3.org/2000/svg" width="39" height="36" viewBox="0 0 39 36"><defs><style>.a{fill:#fff;opacity:0;}.b{fill:#6d6d6d;}</style></defs><g transform="translate(-0.146)"><rect class="a" width="39" height="36" transform="translate(0.146)"/><g transform="translate(7.559 4.954)"><path class="b" d="M69.626,3.262H64.565V2.446A2.621,2.621,0,0,0,61.8,0H58.123a2.621,2.621,0,0,0-2.761,2.446v.815H50.3A2.184,2.184,0,0,0,48,5.3V8.154a.873.873,0,0,0,.92.815h.5l.8,14.793a2.634,2.634,0,0,0,2.758,2.33H66.951a2.633,2.633,0,0,0,2.758-2.33l.8-14.793h.5a.873.873,0,0,0,.92-.815V5.3a2.184,2.184,0,0,0-2.3-2.038ZM57.2,2.446a.874.874,0,0,1,.92-.815H61.8a.874.874,0,0,1,.92.815v.815H57.2ZM49.841,5.3a.437.437,0,0,1,.46-.408H69.626a.437.437,0,0,1,.46.408V7.338H49.841ZM67.87,23.685a.878.878,0,0,1-.919.777H52.976a.878.878,0,0,1-.919-.777L51.266,8.969h17.4Z" transform="translate(-48)"/><path class="b" d="M240.92,220.231a.873.873,0,0,0,.92-.815v-10.6a.927.927,0,0,0-1.841,0v10.6A.873.873,0,0,0,240.92,220.231Z" transform="translate(-228.957 -197.4)"/><path class="b" d="M320.92,220.231a.873.873,0,0,0,.92-.815v-10.6a.927.927,0,0,0-1.841,0v10.6A.873.873,0,0,0,320.92,220.231Z" transform="translate(-304.355 -197.4)"/><path class="b" d="M160.92,220.231a.873.873,0,0,0,.92-.815v-10.6a.927.927,0,0,0-1.841,0v10.6A.873.873,0,0,0,160.92,220.231Z" transform="translate(-153.558 -197.4)"/></g></g></svg>