<svg xmlns="http://www.w3.org/2000/svg" width="58.192" height="60.092" viewBox="0 0 58.192 60.092">
  <g id="Group_21" data-name="Group 21" transform="translate(0)">
    <g id="Group_19" data-name="Group 19" transform="translate(12.844)">
      <path id="Path_104" data-name="Path 104" d="M154.866,94.228a16.252,16.252,0,1,1,16.249-16.252A16.273,16.273,0,0,1,154.866,94.228Zm0-29.488A13.236,13.236,0,1,0,168.1,77.976,13.252,13.252,0,0,0,154.866,64.74Z" transform="translate(-138.611 -61.724)" fill="#fff"/>
    </g>
    <g id="Group_20" data-name="Group 20" transform="translate(0 29.488)">
      <path id="Path_105" data-name="Path 105" d="M192.544,102.106H134.352V100.6a29.1,29.1,0,1,1,58.192,0ZM137.413,99.09h52.07a26.079,26.079,0,0,0-52.07,0Z" transform="translate(-134.352 -71.502)" fill="#fff"/>
    </g>
  </g>
</svg>
