<svg xmlns="http://www.w3.org/2000/svg" width="36" height="36" viewBox="0 0 36 36"><defs><style>.a{fill:#fff;opacity:0;}.b{fill:#4973bb;}</style></defs><g transform="translate(-0.491)"><rect class="a" width="36" height="36" transform="translate(0.491)"/><path class="b" d="M18.407,24H5.635A5.636,5.636,0,0,1,0,18.375V5.625A5.636,5.636,0,0,1,5.635,0H18.407a5.636,5.636,0,0,1,5.635,5.625v12.75A5.636,5.636,0,0,1,18.407,24ZM5.635,1.875a3.758,3.758,0,0,0-3.757,3.75v12.75a3.758,3.758,0,0,0,3.757,3.75H18.407a3.758,3.758,0,0,0,3.757-3.75V5.625a3.758,3.758,0,0,0-3.757-3.75Zm.8,14.625a.938.938,0,0,1-.921-1.121l.532-2.656A6.755,6.755,0,0,1,7.9,9.257l4.513-4.505a3.425,3.425,0,1,1,4.848,4.839L12.749,14.1a6.775,6.775,0,0,1-3.471,1.854l-2.661.531a.942.942,0,0,1-.184.018ZM14.838,5.625a1.541,1.541,0,0,0-1.1.453L9.23,10.583A4.886,4.886,0,0,0,7.886,13.09L7.63,14.368l1.28-.255a4.9,4.9,0,0,0,2.511-1.341l4.513-4.505a1.552,1.552,0,0,0,0-2.188h0a1.541,1.541,0,0,0-1.1-.453ZM20.1,19.313a.938.938,0,0,0-.939-.937H4.884a.938.938,0,0,0,0,1.875H19.159A.938.938,0,0,0,20.1,19.313Z" transform="translate(5.679 6)"/></g></svg>