<svg xmlns="http://www.w3.org/2000/svg" xmlns:xlink="http://www.w3.org/1999/xlink" width="438.96" height="52.2" viewBox="0 0 438.96 52.2"><defs><style>.a{opacity:0.2;}.b{fill:#036eb8;}.c{fill:url(#a);}.d{fill:url(#b);}.e{fill:url(#c);}.f{fill:url(#d);}.g{fill:url(#e);}.h{fill:url(#f);}.i{fill:url(#g);}.j{fill:url(#h);}</style><linearGradient id="a" x1="0.5" y1="-0.071" x2="0.5" y2="1.522" gradientUnits="objectBoundingBox"><stop offset="0.3" stop-color="#4f5d75"/><stop offset="1" stop-color="#171c61"/></linearGradient><linearGradient id="b" x1="0.5" y1="-0.117" x2="0.5" y2="1.611" xlink:href="#a"/><linearGradient id="c" x1="0.5" y1="-0.072" x2="0.5" y2="1.541" xlink:href="#a"/><linearGradient id="d" x1="0.5" y1="-0.076" x2="0.5" y2="1.543" xlink:href="#a"/><linearGradient id="e" x1="0.499" y1="-0.076" x2="0.499" y2="1.543" xlink:href="#a"/><linearGradient id="f" x1="0.5" y1="-0.113" x2="0.5" y2="1.615" xlink:href="#a"/><linearGradient id="g" x1="0.5" y1="-0.108" x2="0.5" y2="1.553" xlink:href="#a"/><linearGradient id="h" x1="0.5" y1="-0.067" x2="0.5" y2="1.526" xlink:href="#a"/></defs><g class="a"><path class="b" d="M2.24,49.12q2.25-3.49,5.12-8.41L12.49,43,17,40.71c1.09,1.5,2.39,3.42,3.9,5.74a15.407,15.407,0,0,0,1.23,2L16.6,51.58q-.42-.82-1.23-2.46a53.955,53.955,0,0,0-2.88-4.93,52.269,52.269,0,0,0-3.28,5.34c-.69,1.23-1.16,2.12-1.44,2.67a54.36,54.36,0,0,0-5.53-3.08Zm1.84-9.23V4.6H20.29V39.89ZM10,11.16v3.29h4.31V11.16Zm0,9.44v3.28h4.31V20.6Zm0,9.23v3.49h4.31V29.83Zm40.62-4.51V38.66H52.5V44H50.65v1.23q0,6-6.36,6.16H37.52a55.8,55.8,0,0,0-1.23-5.75h5.54c1.5.14,2.19-.41,2.05-1.64H29.32v7.39H22.75V44H20.91V38.66h1.84V25.32H33.21V23.47H21.32V18.34h5.74V16.5H22.75V12h4.31V10.14H21.52V5h5.54V2.34h6.77V5h5.54V2.34h6.77V5h5.13v5.13H46.14V12h4.1v4.5h-4.1v1.84H52.5v5.13H40v1.85Zm-21.3,5.13V32.5h3.89V30.45Zm0,6.15v2.06h3.89V36.6Zm4.51-26.46V12h5.54V10.14Zm0,6.36v1.84h5.54V16.5Zm10.05,14H40v2h3.9ZM40,36.6v2.06h3.9V36.6Z"/><path class="b" d="M60.25,15.68V4.19h45.14V15.68H86.93v1.84h19.49v4.72H86.93v1.64h15.38V45.63h5.34v4.51H58V45.63h5.33V23.88H78.72V22.24H59.23V17.52H78.72V15.68Zm8-4.31h4.51V8.91h-4.5Zm3.07,17V29.8h23V28.4Zm0,5.13v1.64h23V33.53Zm0,5.13V40.3h23V38.66Zm0,5.33V45.6h23V44Zm9-35.08v2.46h4.72V8.91Zm16.82,0H92.67v2.46h4.51Z"/><path class="b" d="M160.74,41.12q0,8.82-8.21,9-3.08.21-7,.21a5.919,5.919,0,0,1-.41-1.44,27.1,27.1,0,0,0-1-4.3q-3.08,2.87-7.59,6.56a35.74,35.74,0,0,0-6.15-5.74q15.39-9.24,17.23-28.52h-1.85q-1.63,13.34-10.46,21.34l-3.08-3.08c-.95.14-2,.34-3.07.61v15.8h-7.59V37.42q-1.65.21-5.34,1l-2.46.62-.62-8.83c2.74-.41,5.54-.82,8.42-1.23V20.19h-2.47c-.13.69-.27,1.64-.41,2.87s-.48,2.4-.61,3.08a24,24,0,0,1-3.28-1,9.62,9.62,0,0,0-1.85-.41,114.521,114.521,0,0,0,2-18l5.34.41c0,.69-.08,1.64-.21,2.87a15.09,15.09,0,0,1-.21,2.87h1.65V2.55h7.59V12.8h2.66v2.47a44,44,0,0,0,5.75-12.93l7.59,1.85a20.809,20.809,0,0,0-1,2.67,27.89,27.89,0,0,0-1.23,2.66h18.88Q160.95,35.17,160.74,41.12ZM132.43,30.24a26.38,26.38,0,0,0,8.21-13.33H139.2a37.42,37.42,0,0,1-4.92,7.18c-.55-.55-1.24-1.3-2.06-2.26-.54-.68-.95-1.23-1.23-1.64h-1.84v7.59a19.62,19.62,0,0,1,3.28-.61Zm20.1-13.33q-1.23,19.29-7.18,26.26h4.31c2.46.14,3.7-1.09,3.7-3.69,0-.69.06-1.92.2-3.7q.62-13.53.82-18.87Z"/><path class="b" d="M197,6.65q3.28,2.46,7.39,5.95V2.6h8.21V32.3l5.12-.62.41,7.8-5.53.61V51.58h-8.2V40.71l-13.34,1.23L190.45,37l-3.08,3.7q-1.65-1.85-3.49-3.7V51.38h-7.59V38a50.19,50.19,0,0,1-6.15,8q-1-4.51-2.26-8.62a38.8,38.8,0,0,0,7.39-10H168.7V20.19h7.59V17.52L171.57,19q-.62-2.67-2.25-7.59c-.41-1.5-.76-2.67-1-3.49l4.92-1.43q1,3.08,2.88,8.82c-.14-.28-.07.07.2,1V2.75h7.59V15.06c.28-.82.75-2.05,1.44-3.69,1-2.19,1.64-3.83,2.05-4.92l5.13,1.84q-2.26,5.54-4.72,10.67l-3.9-1.64v2.87h7v3.9l4.31-4.93a56.623,56.623,0,0,1,4.92,3.9,31,31,0,0,0,3.28,2.67l-4.72,5.95q-3.9-3.69-7.79-7v2.67h-7v4.31l1.85-2.05a11.758,11.758,0,0,0,1.23,1c1.23,1,2.67,2.13,4.31,3.49l13.13-1.23V14.65l-4.1,4.51q-3.09-3.075-8-7.38Z"/><path class="b" d="M230.41,2.55l8,.41A16.852,16.852,0,0,1,237,5.62h12.31V9.73a31.86,31.86,0,0,0,4.1-7.18l7.8.41c-.41.82-.82,1.71-1.23,2.66H272.9v5.75h-6.56l1.84,2.46-7.59.62q-.4-.62-1-1.65a17.811,17.811,0,0,0-1.24-1.43h-1.64c-.68,1.1-1.43,2.19-2.25,3.28L252.78,14v1.64h19.28V26.35h-5.13v9.43H237.18v1.85h31.6V51.38h-8.21V49.94H237.18v1.64h-8V26.35h-4.51V15.68h2.26c-.42-.41-1.1-1-2.06-1.85s-1.64-1.44-2.05-1.85Q228.36,7.06,230.41,2.55Zm2.88,8.82a40.1,40.1,0,0,1-4.11,4.31h15.59V13.22h4.93l-2.26-.83.62-1h-5.75l1.85,2.46-7.59.62-2-3.08Zm-.41,9.85v1.84h31V21.22Zm4.3,7.18v2.05h21.55V28.4Zm23.39,14.36H237.18V45h23.39Z"/><path class="b" d="M296,31.06V4h30.37V31.06H314.9v2.67h11.69V40.5H314.9v2.67h13.54v6.77H293.56V45.63q-7.19,1.23-13.95,2.67l-1.23-7.8a9.41,9.41,0,0,0,1.64-.2c1.5-.14,2.6-.28,3.28-.41V29.22h-3.69V21.83h3.69V12.19h-3.89V4.6h15.38v7.59h-3.9v9.64h3.7v7.39h-3.7v9.64a32.279,32.279,0,0,1,4.11-.61q-.21,2.25-.21,4.92h12.52V40.5H296V33.73h11.29V31.06Zm7.59-20.31v3.7h3.7v-3.7Zm0,9.85v3.69h3.7V20.6Zm15.19-9.85h-3.9v3.7h3.9Zm0,13.54V20.6h-3.9v3.69Z"/><path class="b" d="M344.81,13.22l2.67,1.64,3.28-2.47q-7,.42-13.75.41c-.27-1-.61-2.39-1-4.3-.28-1.37-.48-2.39-.62-3.08Q363.07,5,380.1,4l1.84,7q-9,.61-18.67,1A36.287,36.287,0,0,1,360,14.24q-4.51,3.28-6.56,4.51a29.32,29.32,0,0,0,3.69,2.47q9.84-5.74,15.59-9.65l6,5.54q-11.07,6.16-22,11.9,7-.2,12.1-.2l-2.66-3.29,5.74-3.28q2.67,2.67,8.62,9c1.23,1.37,2.12,2.33,2.67,2.87l-5.95,4.52L374.15,35a53.468,53.468,0,0,1-5.54.21c-2.46.14-4.31.2-5.54.2V51.79h-8.82V35.58l-7.18.41,4.72,5.13q-5.15,3.9-14,9.64a7.93,7.93,0,0,0-.82-1.23,54.259,54.259,0,0,0-3.89-4.92A152.173,152.173,0,0,0,346,36c-3.56.27-6.22.41-8,.41l-1.44-7.18q3.09,0,6.16-.21,3.08-1.64,7.18-3.69-4.11-3.29-9.85-7.39Zm25.44,22.56q6.57,4.11,13.34,8.62l-5.13,6.15q-6.16-4.52-13.34-9Z"/><path class="b" d="M433.4,36c1.23.41,2.59,1,4.1,1.64l1.23.62q-.41,4.09-1,7.38c-.41,3.28-2.47,4.85-6.16,4.72h-2.26q-5.94.19-5.74-6V29.83H420.9v3.7a21.49,21.49,0,0,1-9,18.46l-3.08-4.31-2.67.82q-.62-2.86-2.67-11.08l4.31-.82,2.05,7.18c2.47-1.91,3.76-5.12,3.9-9.64a16.316,16.316,0,0,1,.21-2v-1.9a29.469,29.469,0,0,0-3.08.62L408,23.47h2.87q2.87-4.92,4.72-8.61H409q-2.46,3.69-6.56,10.25l4.1-1.23c.69,1.37,1.64,3.7,2.87,7,.69,1.51,1.16,2.67,1.44,3.49l-5.33,1.84-.82-2-2.06.21V52h-6.15V35a31.449,31.449,0,0,0-5.75.62l-2.25-6.16,4.1-.41c.68-1.09,1.78-2.8,3.28-5.13a17.5,17.5,0,0,1,1.44-2.46q-1.44-1-4.72-3.49-3.49-2.25-4.92-3.28l3.69-4.51c.68.41,1.3.82,1.85,1.23a93.006,93.006,0,0,0,4.51-9l7,2.26-6.77,9.85,2.46,1.64,3.28-5.54,5.13,2.67V7.88h10.46V2.14h8.21V7.88h10.46v7H424.58l-2.47,3.69c-1.36,2.19-2.39,3.76-3.07,4.72.95,0,2.25-.07,3.89-.21h3.7L423.76,19l5.33-3.49q1,1.23,2.87,3.69,4.73,6,7,8.83L433,32.3l-1.85-2.67h-.41V42.55c0,1,.21,1.44.62,1.44h.41q.81,0,1-1.44Q433.19,39.07,433.4,36Zm-37.75,2q-.42,3.9-1.23,10.46a12.1,12.1,0,0,0-.21,1.85l-5.33-.62c.13-1.09.41-2.6.82-4.51q.62-4.71,1-7.59Zm6-11.9-1.23,2.05,2.05-.2Z"/></g><path class="c" d="M0,47q2.25-3.49,5.13-8.41l5.13,2.26,4.51-2.26q1.64,2.26,3.9,5.74a23.266,23.266,0,0,0,1.23,2.06l-5.54,3.07c-.27-.54-.69-1.37-1.23-2.46-1.1-2-2.05-3.69-2.87-4.92A49.111,49.111,0,0,0,7,47.39q-1,1.84-1.44,2.67A54.73,54.73,0,0,0,0,47Zm1.85-9.23V2.46h16.2V37.75ZM7.8,9v3.28h4.3V9Zm0,9.43v3.29h4.3V18.46Zm0,9.24v3.48h4.3V27.7Zm40.62-4.52V36.52h1.84v5.33H48.42v1.23q0,6-6.36,6.16H35.29c-.14-1.1-.55-3-1.23-5.75H39.6c1.5.14,2.18-.41,2-1.64H27.08v7.39H20.52V41.85H18.67V36.52h1.85V23.18H31V21.34H19.08V16.21h5.74V14.36h-4.3V9.85h4.3V8H19.28V2.87h5.54V.21h6.77V2.87h5.54V.21H43.9V2.87H49V8H43.9V9.85H48v4.51H43.9v1.85h6.36v5.13H37.75v1.84ZM27.08,28.31v2.05H31V28.31Zm0,6.16v2.05H31V34.47ZM31.59,8V9.85h5.54V8Zm0,6.36v1.85h5.54V14.36Zm10.06,14h-3.9v2.05h3.9Zm-3.9,6.16v2.05h3.9v-2.1Z"/><path class="d" d="M58,13.54V2.05h45.13V13.54H84.69v1.85h19.49v4.72H84.69v1.64h15.39V43.49h5.33V48H55.76V43.49H61.1V21.75H76.48V20.11H57V15.39H76.48V13.54Zm8-4.31h4.51V6.77H66Zm3.08,17V27.7h23V26.26Zm0,5.13V33h23V31.39Zm0,5.13v1.64h23V36.52Zm0,5.33v1.64h23V41.85Zm9-35.08V9.23H82.8V6.77ZM95,6.77H90.43V9.23H95Z"/><path class="e" d="M158.51,39q0,8.82-8.21,9-3.08.2-7,.2a6.869,6.869,0,0,1-.41-1.43,29,29,0,0,0-1-4.31c-2,1.91-4.59,4.1-7.59,6.56a36.14,36.14,0,0,0-6.16-5.74q15.39-9.24,17.24-28.52h-1.85Q141.88,28.1,133.07,36.1L130,33a29.47,29.47,0,0,0-3.08.62V49.44h-7.59V35.29c-1.1.13-2.87.48-5.33,1l-2.47.62-.61-8.82c2.73-.41,5.54-.82,8.41-1.23V18.05h-2.46c-.14.69-.28,1.64-.41,2.88-.28,1.36-.48,2.39-.62,3.07a24,24,0,0,1-3.28-1,9.46,9.46,0,0,0-1.85-.41,113.421,113.421,0,0,0,2.06-18.06l5.33.41a27.332,27.332,0,0,1-.21,2.88,16.141,16.141,0,0,1-.2,2.87h1.64V.41h7.59V10.67h2.67v2.46A44.15,44.15,0,0,0,135.32.21l7.59,1.84a23.57,23.57,0,0,0-1,2.67q-.82,1.63-1.23,2.67h18.87Q158.7,33,158.51,39ZM130.19,28.11a26.39,26.39,0,0,0,8.21-13.34H137A37.11,37.11,0,0,1,132,22a26.4,26.4,0,0,1-2-2.26,14.588,14.588,0,0,1-1.23-1.64h-1.85v7.59a20.909,20.909,0,0,1,3.28-.61ZM150.3,14.77Q149.07,34.06,143.12,41h4.31q3.69.21,3.69-3.69c0-.68.07-1.92.2-3.69q.63-13.54.83-18.88Z"/><path class="f" d="M194.78,4.51c2.18,1.64,4.65,3.63,7.38,6V.41h8.21V30.16l5.13-.62.41,7.8-5.54.61V49.44h-8.21V38.57L188.83,39.8l-.62-4.92-3.07,3.69q-1.65-1.84-3.49-3.69V49.24h-7.59V35.9a49.671,49.671,0,0,1-6.16,8c-.68-3-1.43-5.88-2.26-8.61A38.78,38.78,0,0,0,173,25.23h-6.56V18.05h7.59V15.39l-4.72,1.43c-.41-1.77-1.17-4.31-2.26-7.59-.41-1.5-.75-2.67-1-3.49L171,4.31q1,3.08,2.87,8.82c-.14-.27-.07.07.21,1V.62h7.59v12.3c.27-.82.75-2.05,1.43-3.69,1-2.18,1.64-3.83,2.06-4.92l5.12,1.84Q188,11.7,185.55,16.82l-3.9-1.64v2.87h7V22l4.28-5a53,53,0,0,1,4.92,3.9,30.583,30.583,0,0,0,3.29,2.66l-4.72,5.95q-3.9-3.69-7.8-7v2.66h-7v4.31l1.84-2.05a12.553,12.553,0,0,0,1.23,1c1.24,1,2.67,2.12,4.31,3.48l13.13-1.23V12.51L198.06,17q-3.08-3.08-8-7.39Z"/><path class="g" d="M228.18.41l8,.41a16.2,16.2,0,0,1-1.44,2.67h12.31v4.1A31.75,31.75,0,0,0,251.16.41L259,.82q-.61,1.23-1.23,2.67H270.7V9.23h-6.57l1.85,2.46-7.59.62c-.28-.41-.62-1-1-1.64a9.79,9.79,0,0,0-1.23-1.44h-1.64c-.69,1.1-1.44,2.19-2.26,3.28l-1.64-.61v1.64H269.9V24.21h-5.2v9.44H235v1.84h31.59V49.24h-8.2V47.8H235v1.64h-8V24.21h-4.52V13.54h2.26c-.41-.41-1.1-1-2.05-1.85s-1.64-1.43-2-1.84A30.468,30.468,0,0,0,228.18.41Zm2.87,8.82a39,39,0,0,1-4.1,4.31h15.59V11.08h4.92l-2.25-.82.61-1h-5.74l1.84,2.46-7.59.62-2.05-3.08Zm-.41,9.85v1.85h31V19.08ZM235,26.26v2h21.54v-2Zm23.39,14.36H235v2.26h23.39Z"/><path class="h" d="M293.79,28.93V1.85h30.36V28.93H312.66v2.66h11.7v6.77h-11.7V41H326.2v6.8H291.33V43.49q-7.18,1.23-14,2.67l-1.23-7.8a8.61,8.61,0,0,0,1.65-.2c1.5-.14,2.59-.27,3.28-.41V27.08h-3.7V19.69h3.7V10.05h-3.9V2.46h15.39v7.59h-3.9v9.64h3.69v7.39h-3.69v9.64a34,34,0,0,1,4.1-.61c-.14,1.5-.2,3.15-.2,4.92h12.51V38.36H293.79V31.59h11.28V28.93Zm7.59-20.31v3.69h3.69V8.62Zm0,9.84v3.7h3.69v-3.7Zm15.18-9.84h-3.9v3.69h3.9Zm0,13.54v-3.7h-3.9v3.7Z"/><path class="i" d="M342.57,11.08l2.67,1.64,3.28-2.46q-7,.4-13.74.41c-.28-1-.62-2.39-1-4.31-.27-1.37-.48-2.39-.61-3.08q27.69-.4,44.72-1.43l1.85,7q-9,.62-18.67,1c-.69.55-1.78,1.3-3.28,2.25q-4.51,3.28-6.57,4.52a28.16,28.16,0,0,0,3.69,2.46q9.86-5.74,15.6-9.64L376.43,15q-11.08,6.15-22,11.9,7-.21,12.11-.21l-2.67-3.28,5.75-3.28q2.65,2.66,8.61,9c1.23,1.37,2.12,2.33,2.67,2.87L375,36.52l-3.08-3.69c-1.23.13-3.07.2-5.54.2s-4.31.21-5.54.21V49.65H352V33.44l-7.18.41L349.55,39q-5.13,3.9-13.95,9.64a10.121,10.121,0,0,0-.82-1.23,53,53,0,0,0-3.9-4.92,152.528,152.528,0,0,0,12.93-8.62c-3.56.28-6.23.41-8,.41l-1.43-7.18q3.08,0,6.15-.2c2.05-1.1,4.45-2.33,7.18-3.7-2.73-2.18-6-4.65-9.84-7.38ZM368,33.65q6.57,4.1,13.34,8.61l-5.13,6.16q-6.15-4.52-13.33-9Z"/><path class="j" d="M431.16,33.85c1.23.41,2.6,1,4.11,1.64l1.23.62q-.42,4.11-1,7.38-.62,4.93-6.15,4.72h-2.26q-6,.21-5.75-6V27.7h-2.66v3.69a21.5,21.5,0,0,1-9,18.46l-3.08-4.3-2.66.82c-.41-1.92-1.31-5.61-2.67-11.08l4.31-.82,2.05,7.18q3.69-2.88,3.9-9.65a15.79,15.79,0,0,1,.2-2.05V28.11a29.812,29.812,0,0,0-3.08.61l-2.87-7.38h2.87q2.88-4.93,4.72-8.62h-6.56q-2.46,3.69-6.57,10.26l4.11-1.23q1,2.05,2.87,7c.68,1.51,1.16,2.67,1.43,3.49l-5.33,1.85L402.44,32l-2.05.21V49.85h-6.16v-17a30.569,30.569,0,0,0-5.74.61l-2.26-6.15,4.11-.41q1-1.65,3.28-5.13a16.346,16.346,0,0,1,1.43-2.47c-.95-.68-2.53-1.84-4.71-3.48s-4-2.6-4.93-3.29L389.1,8A21.21,21.21,0,0,1,391,9.23a90.478,90.478,0,0,0,4.51-9l7,2.25-6.77,9.85L398.13,14l3.28-5.54,5.13,2.67V5.74H417V0h8.2V5.74h10.47v7H422.34l-2.46,3.69c-1.37,2.19-2.4,3.77-3.08,4.72,1,0,2.26-.07,3.9-.2h3.69l-2.87-4.11,5.33-3.48q1,1.23,2.88,3.69,4.71,6,7,8.82l-5.95,4.31-1.84-2.67h-.41V40.42c0,.95.2,1.43.61,1.43h.41c.55,0,.89-.48,1-1.43Q431,36.93,431.16,33.85Zm-37.75,2q-.41,3.9-1.23,10.47a11.7,11.7,0,0,0-.2,1.84l-5.34-.61c.14-1.1.41-2.6.82-4.52q.62-4.71,1-7.59ZM399.36,24l-1.23,2.05,2.05-.2Z"/></svg>